<?xml version="1.0" encoding="UTF-8"?>
<svg width="32" height="32" viewBox="0 0 32 32" fill="none" xmlns="http://www.w3.org/2000/svg">
  <!-- Background Square -->
  <rect width="32" height="32" rx="8" fill="#000000" />
  
  <!-- Bot Head -->
  <path d="M16 8C12.6863 8 10 10.6863 10 14V18C10 21.3137 12.6863 24 16 24C19.3137 24 22 21.3137 22 18V14C22 10.6863 19.3137 8 16 8Z" fill="#1a1a1a" />
  
  <!-- Bot Eyes -->
  <circle cx="13" cy="16" r="2" fill="#22c55e" />
  <circle cx="19" cy="16" r="2" fill="#22c55e" />
  
  <!-- Bot Antenna -->
  <path d="M16 8V4" stroke="#22c55e" stroke-width="2" stroke-linecap="round" />
  <circle cx="16" cy="4" r="1.5" fill="#22c55e" />
  
  <!-- Bot Mouth -->
  <path d="M12 20H20" stroke="#22c55e" stroke-width="2" stroke-linecap="round" />
  
  <!-- Bot Outline -->
  <path d="M16 8C12.6863 8 10 10.6863 10 14V18C10 21.3137 12.6863 24 16 24C19.3137 24 22 21.3137 22 18V14C22 10.6863 19.3137 8 16 8Z" stroke="#22c55e" stroke-width="1.5" stroke-linecap="round" stroke-linejoin="round" />
</svg> 